<svg width="15" height="17" viewBox="0 0 15 17" fill="none" xmlns="http://www.w3.org/2000/svg">
<path d="M12.6704 0.059475C12.5363 -0.0195004 12.3713 -0.0250002 12.2323 0.0448231C12.0934 0.114818 11.9995 0.250468 11.9829 0.405068C11.9664 0.555413 11.9408 0.705716 11.9087 0.86341C11.0113 4.9361 9.20911 6.91698 6.39775 6.91698H2.2728C2.0553 6.91737 1.86804 7.07055 1.82456 7.28363L0.449577 13.7286L0.203928 15.3695C0.0626922 16.1156 0.553045 16.835 1.29914 16.9762C1.38143 16.9918 1.46491 16.9998 1.54866 17.0002H4.30777C4.94018 17.0021 5.49155 16.5705 5.64151 15.9561L6.75614 11.5003H9.14771C11.9701 11.5003 13.9207 9.24989 14.6403 5.16345C15.1153 3.21759 14.3295 1.18167 12.6704 0.059475Z" fill="#03A9F4"/>
</svg>
