<svg width="17" height="20" viewBox="0 0 17 20" fill="none" xmlns="http://www.w3.org/2000/svg">
<path d="M15.8048 1.63351C14.8991 0.606185 13.5994 0.0122793 12.2299 3.33789e-05H4.63995C3.50409 -0.0060681 2.53705 0.824979 2.37218 1.94881L0.0154638 17.6703C-0.0974136 18.4213 0.419794 19.1216 1.17075 19.2345C1.2389 19.2447 1.30777 19.2498 1.3767 19.2498H4.89665C5.11415 19.2494 5.30141 19.0962 5.34489 18.8831L6.64197 12.8332H10.4003C13.6617 12.8332 15.8168 10.5535 16.8068 6.04995C16.8466 5.87043 16.8772 5.68902 16.8984 5.50636C17.1282 4.11698 16.7274 2.69745 15.8048 1.63351Z" fill="#283593"/>
</svg>
